<?xml version="1.0" standalone="no"?>
<!DOCTYPE svg PUBLIC "-//W3C//DTD SVG 20010904//EN"
 "http://www.w3.org/TR/2001/REC-SVG-20010904/DTD/svg10.dtd">
<svg version="1.0" xmlns="http://www.w3.org/2000/svg"
 width="256.000000pt" height="256.000000pt" viewBox="0 0 256.000000 256.000000"
 preserveAspectRatio="xMidYMid meet">
<metadata>
Created by potrace 1.11, written by Peter Selinger 2001-2013
</metadata>
<g transform="translate(0.000000,256.000000) scale(0.100000,-0.100000)"
fill="#000000" stroke="none">
<path d="M1564 2334 c-31 -15 -41 -39 -18 -48 26 -10 73 10 70 30 -4 28 -20
33 -52 18z"/>
<path d="M1462 2324 c-24 -17 -29 -43 -9 -46 34 -4 43 -3 54 8 14 14 5 48 -13
51 -6 1 -21 -5 -32 -13z"/>
<path d="M1650 2325 c-10 -12 -10 -19 -2 -27 17 -17 40 -18 46 -1 3 8 11 11
17 7 8 -4 8 0 0 15 -14 25 -43 27 -61 6z"/>
<path d="M1370 2310 c0 -5 -7 -10 -16 -10 -24 0 -13 -44 12 -48 24 -3 54 22
54 45 0 9 -3 13 -6 10 -4 -3 -15 -2 -25 4 -13 6 -19 6 -19 -1z"/>
<path d="M1752 2312 c-7 -5 -14 -18 -17 -31 -3 -18 0 -21 19 -18 13 1 31 9 40
16 13 11 13 15 1 27 -16 16 -25 17 -43 6z"/>
<path d="M1240 2255 c-12 -22 -12 -28 1 -40 13 -13 19 -12 49 10 19 14 27 25
19 25 -11 0 -11 2 -1 9 11 7 10 10 -3 15 -32 12 -52 6 -65 -19z"/>
<path d="M1814 2263 c-15 -16 -15 -18 2 -30 15 -11 21 -11 38 0 10 7 20 20 21
28 4 21 -40 22 -61 2z"/>
<path d="M1153 2230 c-13 -5 -23 -14 -23 -19 0 -5 -3 -18 -7 -28 -3 -10 -3
-15 2 -11 4 4 14 3 21 -3 16 -13 58 23 60 52 1 21 -16 24 -53 9z"/>
<path d="M1885 2221 c-11 -3 -20 -12 -19 -18 1 -7 2 -17 3 -23 0 -5 11 -8 24
-6 12 3 25 5 29 5 9 1 4 29 -8 40 -5 4 -18 5 -29 2z"/>
<path d="M1051 2171 c-11 -11 -22 -17 -25 -13 -3 3 -5 -6 -4 -20 2 -20 7 -25
28 -24 22 0 60 29 60 46 0 9 -22 30 -32 30 -4 0 -17 -9 -27 -19z"/>
<path d="M1908 2140 c-9 -6 -14 -18 -11 -29 4 -17 9 -18 34 -9 28 10 34 26 14
40 -13 10 -16 9 -37 -2z"/>
<path d="M943 2115 c-31 -22 -34 -49 -7 -62 19 -9 27 -7 42 6 25 22 34 58 15
65 -21 9 -26 8 -50 -9z"/>
<path d="M1919 2057 c-22 -17 -12 -37 17 -37 14 0 22 4 19 10 -3 6 -2 10 4 10
6 0 8 7 5 15 -7 18 -23 19 -45 2z"/>
<path d="M833 2045 c-22 -24 -13 -73 12 -69 30 5 52 18 64 36 7 11 8 17 2 13
-7 -3 -11 2 -11 14 0 16 -6 21 -27 21 -16 -1 -34 -7 -40 -15z"/>
<path d="M641 1986 c-9 -10 -8 -16 4 -26 10 -9 15 -9 15 -1 0 6 3 10 8 10 19
-3 23 2 12 16 -15 19 -24 19 -39 1z"/>
<path d="M763 1977 c-13 -5 -23 -14 -23 -19 0 -5 -4 -7 -9 -4 -5 3 -11 -8 -13
-24 -5 -32 9 -42 47 -36 25 4 58 48 50 68 -9 22 -26 27 -52 15z"/>
<path d="M567 1933 c-15 -14 -7 -43 13 -43 20 0 44 32 33 44 -8 8 -38 8 -46
-1z"/>
<path d="M1626 1921 c-4 -6 -13 -8 -19 -5 -7 4 -9 4 -5 -1 4 -4 -2 -15 -14
-24 -16 -14 -19 -23 -13 -50 4 -18 9 -30 13 -27 3 3 11 1 19 -5 10 -9 13 -8
13 2 0 11 2 11 8 1 7 -9 15 -7 35 12 14 13 28 22 30 19 7 -7 14 56 7 67 -9 15
-67 24 -74 11z"/>
<path d="M1482 1910 c-12 -5 -32 -19 -45 -31 -12 -12 -16 -19 -9 -15 6 4 12 2
12 -3 0 -6 -5 -11 -11 -11 -8 0 -7 -6 2 -17 12 -15 12 -16 -1 -8 -10 6 -9 1 3
-12 37 -42 127 -6 127 51 0 26 -24 56 -43 55 -7 0 -22 -4 -35 -9z"/>
<path d="M1748 1903 c-16 -8 -29 -17 -29 -21 -8 -40 -4 -55 16 -68 60 -39 151
50 93 91 -27 18 -44 18 -80 -2z"/>
<path d="M674 1890 c-11 -4 -27 -19 -36 -32 -16 -25 -13 -52 4 -42 7 4 8 2 4
-4 -13 -21 39 -8 62 15 26 28 29 58 6 67 -9 3 -16 6 -17 5 -1 0 -11 -4 -23 -9z"/>
<path d="M1350 1889 c0 -6 -6 -9 -14 -6 -17 7 -65 -43 -59 -60 3 -7 -2 -13
-11 -13 -9 0 -16 4 -16 8 0 5 -10 13 -22 19 -32 14 -81 -11 -101 -51 -13 -28
-13 -34 0 -51 8 -11 19 -19 24 -17 5 1 9 -4 9 -10 0 -9 4 -8 10 2 5 8 10 11
10 6 0 -4 12 -1 26 9 15 9 23 11 19 4 -5 -8 -4 -10 3 -5 7 4 12 16 12 27 0 11
7 22 15 25 8 4 12 10 9 15 -10 16 5 10 26 -11 23 -23 68 -20 86 5 6 8 14 12
17 8 4 -3 7 -2 8 3 0 5 2 18 4 28 5 25 -10 53 -35 66 -15 8 -20 8 -20 -1z"/>
<path d="M1904 1877 c-17 -5 -36 -18 -43 -29 -15 -25 -23 -60 -12 -53 5 3 11
-1 14 -9 6 -16 47 -28 47 -14 0 6 6 8 13 5 6 -2 24 8 38 22 44 46 7 98 -57 78z"/>
<path d="M497 1863 c-4 -3 -7 -15 -7 -25 0 -13 7 -18 25 -18 14 0 25 3 26 8 0
4 2 15 4 25 2 12 -3 17 -19 17 -13 0 -26 -3 -29 -7z"/>
<path d="M2003 1814 c-57 -28 -52 -92 8 -96 29 -2 81 21 73 33 -3 5 -1 9 4 9
17 0 7 45 -13 57 -26 16 -34 16 -72 -3z"/>
<path d="M435 1786 c-20 -15 -15 -46 8 -46 21 0 38 25 31 44 -7 20 -15 20 -39
2z"/>
<path d="M583 1784 c-3 -8 -9 -11 -14 -8 -5 3 -9 2 -10 -3 0 -4 -2 -18 -5 -30
-2 -12 1 -25 6 -28 5 -3 6 -13 3 -21 -5 -13 -7 -13 -14 -2 -7 10 -9 10 -9 1 0
-7 -5 -13 -11 -13 -6 0 -17 -7 -26 -16 -19 -18 -28 -75 -12 -71 24 5 19 -23
-5 -29 -14 -3 -23 -10 -20 -15 3 -5 1 -9 -5 -9 -16 0 -24 -40 -11 -55 6 -8 18
-11 26 -8 9 3 14 -1 14 -12 0 -9 -4 -14 -9 -11 -5 3 -12 -1 -15 -10 -3 -9 -11
-12 -18 -8 -7 4 -10 4 -6 0 4 -5 2 -19 -3 -33 -9 -25 1 -59 18 -57 4 0 13 -5
20 -11 9 -9 9 -15 0 -24 -6 -6 -7 -11 -2 -11 6 0 3 -5 -5 -10 -11 -7 -11 -10
-2 -10 7 0 10 -4 7 -10 -3 -5 -1 -10 5 -10 6 0 9 -4 6 -9 -6 -9 20 -8 54 0 16
5 21 -32 5 -43 -6 -5 -5 -8 3 -8 6 0 12 -6 12 -13 0 -24 69 -14 90 13 l18 24
-5 -26 c-7 -35 11 -65 42 -70 14 -3 25 -1 25 3 0 5 6 9 13 9 18 0 57 46 49 57
-4 4 -3 4 2 0 9 -7 16 -27 18 -54 1 -7 6 -13 12 -14 6 0 23 -3 39 -5 15 -3 27
0 27 6 0 6 4 9 9 6 10 -6 44 41 44 61 0 7 4 10 9 7 5 -3 7 -8 4 -12 -2 -4 8
-18 22 -32 13 -14 21 -18 16 -10 -7 13 -6 13 10 1 15 -13 19 -13 27 0 5 8 9
10 9 5 0 -5 7 -3 15 4 8 7 15 9 15 4 0 -5 11 8 24 30 14 21 22 45 19 52 -3 8
0 14 6 14 6 0 11 -4 11 -10 0 -22 2 -25 18 -35 23 -13 34 -13 51 -1 11 8 13 8
7 -1 -14 -24 11 -13 46 20 22 20 35 40 33 54 -1 13 3 20 9 16 6 -4 5 1 -3 10
-11 14 -11 17 0 17 8 0 20 -9 27 -20 10 -17 20 -20 55 -16 45 5 81 38 90 83 5
26 -28 77 -44 68 -5 -4 -9 0 -9 7 0 9 -3 9 -10 -2 -9 -13 -10 -13 -10 0 0 9
-3 11 -8 5 -4 -5 -14 -11 -22 -13 -8 -2 -17 -8 -18 -13 -2 -5 -8 -7 -13 -3 -5
3 -9 -1 -9 -10 0 -8 -4 -16 -10 -18 -5 -1 -11 -15 -12 -30 -3 -30 -19 -36 -37
-14 -20 24 -80 11 -112 -25 -15 -17 -27 -34 -26 -38 4 -13 -14 -11 -37 4 -21
14 -28 14 -58 2 -18 -8 -42 -25 -53 -37 -12 -14 -14 -20 -5 -15 13 8 13 7 1
-9 -14 -17 -15 -17 -23 3 -4 12 -12 21 -18 21 -6 0 -9 4 -6 9 3 5 -8 7 -25 6
-34 -3 -85 -37 -81 -54 5 -24 -14 -9 -25 19 -13 34 -41 39 -83 16 -23 -13 -25
-12 -36 14 -9 21 -20 29 -47 32 -28 3 -34 1 -29 -12 4 -12 2 -13 -8 -3 -10 9
-10 16 -2 25 7 9 7 20 -3 38 -8 14 -14 21 -15 16 0 -5 -6 -3 -13 3 -8 6 -16 9
-19 6 -2 -3 -5 2 -5 10 0 8 4 15 8 15 9 0 5 48 -5 58 -4 4 -13 7 -19 7 -5 0
-12 7 -15 15 -3 8 -1 12 3 8 4 -4 14 -1 21 7 15 15 38 69 26 62 -8 -6 -26 13
-29 31 -2 6 3 9 10 6 7 -2 25 9 39 25 25 27 25 30 11 51 -13 19 -13 24 -2 31
8 5 18 7 24 6 12 -4 35 17 35 32 0 6 4 11 9 11 10 0 3 39 -8 41 -32 7 -54 4
-58 -7z"/>
<path d="M1013 1764 c-21 -11 -36 -28 -44 -51 -10 -30 -9 -37 9 -54 52 -48
166 55 116 105 -19 20 -40 20 -81 0z"/>
<path d="M2124 1742 c-19 -3 -82 -61 -77 -70 1 -2 12 -11 25 -21 27 -21 61
-35 53 -22 -3 5 5 11 17 13 39 5 60 88 23 88 -7 0 -15 3 -17 8 -1 4 -13 6 -24
4z"/>
<path d="M1620 1725 c-19 -7 -30 -14 -25 -14 7 -1 7 -4 0 -9 -23 -16 -37 -59
-27 -79 14 -26 42 -49 42 -35 0 6 7 9 15 6 8 -4 22 -1 30 6 8 7 15 9 15 4 0
-5 11 8 25 28 30 44 26 80 -11 97 -14 6 -26 11 -27 10 -1 0 -18 -7 -37 -14z"/>
<path d="M1453 1714 c-18 -9 -33 -22 -33 -28 0 -7 -5 -17 -11 -23 -9 -9 -17
-6 -31 13 -20 25 -46 27 -87 5 -24 -13 -51 -60 -47 -83 3 -22 27 -49 37 -42 5
3 9 -1 9 -8 0 -9 3 -9 10 2 7 11 10 12 10 2 0 -9 10 -6 33 9 39 28 48 40 42
56 -7 20 18 10 30 -12 11 -20 75 -31 75 -13 0 5 4 7 9 4 12 -8 42 28 44 52 0
11 4 19 8 16 4 -2 10 0 14 6 3 5 1 10 -4 10 -6 0 -11 7 -11 15 0 9 -12 20 -26
25 -32 13 -33 13 -71 -6z"/>
<path d="M374 1712 c-17 -11 -23 -39 -12 -50 17 -17 60 7 56 32 -3 22 -26 31
-44 18z"/>
<path d="M1775 1698 c-27 -15 -70 -58 -59 -58 5 0 2 -5 -6 -10 -9 -6 -11 -10
-3 -10 7 0 10 -7 7 -15 -4 -8 -1 -15 7 -15 7 0 9 -3 6 -7 -12 -12 37 -30 56
-21 9 5 23 6 29 2 7 -4 8 -3 4 4 -7 11 6 17 27 13 5 -1 5 4 1 10 -3 6 -1 14 5
18 6 4 13 22 15 39 3 28 -1 35 -25 47 -33 18 -38 18 -64 3z"/>
<path d="M845 1664 c-18 -17 -34 -46 -37 -63 -2 -16 -1 -28 3 -26 4 3 12 -2
19 -9 20 -25 94 1 106 36 3 10 9 18 13 18 12 0 7 48 -7 62 -24 24 -63 17 -97
-18z"/>
<path d="M1120 1622 c-20 -15 -36 -38 -38 -52 -2 -14 -9 -29 -14 -35 -8 -7 -9
-6 -5 1 8 13 -36 29 -67 25 -26 -4 -75 -60 -71 -82 2 -10 -1 -21 -6 -25 -15
-9 36 -44 65 -44 25 0 85 48 87 70 1 5 3 15 4 20 1 6 3 12 4 15 0 3 11 -3 23
-15 12 -11 24 -17 27 -13 3 5 17 9 30 11 29 3 65 47 68 84 2 23 -4 33 -30 48
-17 11 -34 20 -37 20 -3 0 -21 -13 -40 -28z"/>
<path d="M2200 1640 c0 -5 -7 -7 -15 -4 -8 4 -15 1 -15 -5 0 -6 -6 -11 -13
-11 -7 0 -18 -9 -24 -20 -17 -27 -1 -67 29 -72 40 -6 89 30 85 62 -3 18 -47
65 -47 50z"/>
<path d="M321 1618 c-12 -11 -21 -27 -19 -35 5 -24 39 -24 58 0 32 39 -2 70
-39 35z"/>
<path d="M1925 1631 c-7 -6 -12 -7 -40 -10 -14 -1 -32 -31 -33 -55 0 -5 -6
-12 -12 -16 -8 -5 -7 -11 4 -22 8 -9 12 -18 9 -22 -4 -3 3 -6 15 -6 12 0 22
-6 22 -12 0 -9 3 -10 8 -2 4 6 15 10 25 8 9 -1 17 2 17 7 0 6 5 7 11 4 6 -5 4
-12 -8 -21 -10 -7 -15 -14 -11 -14 4 0 3 -12 -2 -26 -7 -16 -7 -23 0 -19 6 3
10 -3 10 -15 0 -12 4 -19 9 -15 5 3 12 1 16 -5 4 -6 11 -8 16 -5 5 4 9 0 9 -7
0 -9 3 -9 10 2 8 12 10 12 10 1 0 -7 -9 -21 -19 -31 -42 -36 -27 -105 24 -111
51 -7 108 36 110 81 0 28 -45 62 -77 58 -32 -5 -38 7 -8 17 40 13 58 72 32
105 -18 23 -78 35 -88 19 -3 -5 -11 -9 -17 -9 -7 0 -6 4 3 10 8 5 11 10 6 10
-5 0 -2 8 6 18 17 20 17 29 0 58 -12 22 -46 37 -57 25z"/>
<path d="M720 1593 c-25 -10 -60 -40 -53 -47 3 -3 1 -6 -5 -6 -17 0 -14 -51 3
-74 8 -11 15 -16 15 -10 0 5 5 2 10 -6 6 -9 10 -11 10 -3 0 7 6 10 14 7 8 -3
17 0 21 5 3 6 11 9 16 6 5 -4 9 1 9 10 0 9 4 14 8 11 9 -5 24 19 36 56 3 11
-4 25 -21 38 -26 21 -37 23 -63 13z"/>
<path d="M263 1528 c-29 -47 7 -96 41 -56 33 38 25 67 -16 68 -9 0 -20 -6 -25
-12z"/>
<path d="M2205 1520 c3 -6 1 -10 -5 -10 -20 0 -46 -34 -46 -60 1 -32 38 -52
75 -39 59 21 61 80 2 105 -17 7 -29 9 -26 4z"/>
<path d="M248 1432 c-36 -21 -41 -37 -20 -62 l17 -20 28 23 c29 26 34 48 14
65 -9 8 -20 6 -39 -6z"/>
<path d="M1538 1384 c-26 -14 -67 -74 -51 -74 5 0 2 -4 -5 -8 -16 -11 32 -65
62 -69 27 -5 108 26 100 38 -3 5 0 9 5 9 6 0 11 7 11 15 0 8 4 15 8 15 4 0 8
9 8 20 0 11 -5 20 -10 20 -5 0 -7 3 -3 6 3 3 -2 14 -11 25 -20 23 -75 25 -114
3z"/>
<path d="M2169 1355 c-17 -27 -19 -55 -3 -55 7 0 14 -5 16 -10 6 -18 46 -19
66 -2 28 25 33 58 12 77 -23 21 -75 16 -91 -10z"/>
<path d="M225 1325 c-29 -28 -31 -38 -9 -59 33 -34 93 34 62 71 -15 19 -26 16
-53 -12z"/>
<path d="M1374 1278 c3 -10 1 -18 -4 -18 -14 0 -50 -42 -44 -51 2 -4 0 -10 -5
-13 -16 -10 3 -53 34 -77 16 -13 25 -17 20 -10 -6 11 -4 13 9 8 10 -4 27 -2
39 4 24 13 62 49 51 49 -3 0 -1 6 5 13 6 8 8 17 4 20 -3 4 -1 7 5 7 7 0 5 11
-6 30 -17 30 -61 48 -83 34 -6 -3 -16 0 -21 7 -8 11 -9 10 -4 -3z"/>
<path d="M270 1251 c0 -8 -3 -11 -6 -8 -4 4 -17 -5 -30 -20 -30 -35 -19 -69
20 -65 l27 3 -16 -31 c-11 -21 -13 -36 -6 -48 12 -21 53 -23 63 -2 5 10 7 7 5
-10 -1 -14 -6 -28 -10 -31 -5 -3 -2 -13 7 -21 8 -9 13 -18 11 -22 -3 -3 -2 -4
2 -1 3 3 12 0 20 -6 9 -9 13 -8 13 0 0 6 7 11 15 11 8 0 15 5 15 10 0 6 3 10
8 10 4 0 8 -16 8 -36 1 -20 7 -40 14 -44 17 -10 48 -1 63 19 16 21 41 27 34 7
-8 -21 38 -67 60 -59 26 9 53 34 53 50 0 7 8 13 18 13 14 0 15 -2 2 -10 -11
-7 -11 -10 -2 -10 7 0 11 -4 8 -9 -3 -5 0 -14 8 -20 19 -16 56 -22 56 -10 0 6
6 9 12 7 16 -6 52 38 43 52 -3 6 0 7 9 4 25 -10 -1 54 -28 68 -11 6 -21 12
-21 12 0 0 -15 -9 -32 -19 -18 -11 -33 -25 -33 -31 0 -7 -7 -15 -16 -18 -8 -3
-13 -2 -10 3 3 5 -3 20 -14 34 -23 28 -56 29 -77 1 -6 -9 -16 -13 -22 -9 -7 3
-8 0 -5 -9 3 -9 2 -16 -3 -16 -6 0 -9 16 -8 35 2 20 -2 35 -9 36 -23 3 -51 -3
-63 -13 -9 -7 -13 -7 -13 1 0 7 -5 9 -12 5 -10 -6 -10 -5 -1 7 9 11 8 18 -1
31 -14 19 -48 17 -74 -4 -14 -11 -15 -10 -8 7 4 11 9 27 10 35 4 19 -30 44
-48 37 -22 -9 -26 3 -10 29 12 17 13 28 5 41 -6 10 -11 14 -11 8 0 -5 -5 -3
-10 5 -8 12 -10 12 -10 1z"/>
<path d="M2180 1242 c-46 -16 -60 -65 -25 -88 28 -18 67 -4 83 30 15 34 -21
71 -58 58z"/>
<path d="M1973 1194 c-35 -33 -44 -73 -20 -92 29 -25 64 -31 92 -16 15 8 32
11 39 7 6 -4 5 1 -3 10 -11 14 -11 17 1 17 21 0 21 54 0 80 -28 34 -68 32
-109 -6z"/>
<path d="M1168 1157 c-16 -16 -29 -35 -29 -43 -1 -8 -2 -20 -3 -26 -1 -7 2
-19 7 -25 5 -7 6 -13 1 -13 -4 0 1 -6 11 -14 11 -8 23 -12 27 -10 5 3 8 1 8
-5 0 -5 10 -6 23 -3 33 10 67 35 67 50 0 7 4 11 8 8 9 -5 13 13 12 49 -2 41
-4 45 -17 45 -7 0 -13 5 -13 10 0 6 -17 10 -37 8 -27 -1 -46 -11 -65 -31z"/>
<path d="M1035 1110 c-53 -20 -80 -103 -45 -135 11 -10 20 -15 20 -12 0 4 11
2 25 -3 18 -7 25 -6 25 2 0 6 3 8 6 5 8 -8 64 55 58 64 -2 4 0 10 5 14 6 3 3
17 -7 34 -9 16 -20 27 -24 25 -5 -3 -8 -1 -8 3 0 11 -30 13 -55 3z"/>
<path d="M2093 1090 l-22 -27 22 -19 c12 -10 25 -18 30 -16 4 1 7 -3 7 -8 0
-6 11 -3 24 5 32 21 37 55 13 80 -11 11 -16 14 -12 6 6 -10 4 -12 -6 -5 -24
15 -33 12 -56 -16z"/>
<path d="M886 1069 c5 -8 -18 -14 -39 -10 -5 1 -6 -3 -2 -9 3 -5 2 -10 -3 -10
-16 0 -31 -48 -23 -77 11 -42 50 -52 90 -24 17 12 31 28 31 36 0 7 5 15 10 17
6 2 12 17 15 33 2 17 2 24 -2 17 -4 -10 -9 -8 -19 6 -13 19 -69 38 -58 21z"/>
<path d="M1974 1071 c7 -11 -4 -15 -39 -11 -11 1 -17 -2 -12 -6 4 -4 -3 -15
-15 -23 -31 -22 -35 -77 -6 -87 16 -5 18 -8 7 -15 -10 -6 -5 -8 16 -7 17 1 36
-1 42 -5 7 -5 17 2 24 15 l12 22 19 -25 c32 -38 89 -30 96 13 4 26 -27 57 -54
52 -18 -3 -25 1 -30 20 -3 13 -19 34 -36 46 -17 13 -28 18 -24 11z"/>
<path d="M1846 908 c5 -7 2 -10 -7 -6 -17 6 -44 -21 -43 -42 0 -8 -5 -21 -10
-29 -8 -11 -8 -13 2 -7 7 4 12 2 12 -7 0 -23 28 -40 68 -41 30 -1 39 4 47 22
l10 24 28 -22 c22 -18 30 -20 42 -10 8 7 15 9 15 4 1 -5 7 3 15 18 24 43 6 66
-45 58 -8 -1 -18 -7 -22 -13 -4 -6 -9 0 -13 15 -5 18 -17 30 -37 37 -42 15
-71 14 -62 -1z"/>
<path d="M387 803 c-13 -29 -5 -37 27 -29 16 4 23 12 21 23 -2 10 -4 21 -4 24
-2 16 -34 3 -44 -18z"/>
<path d="M1755 780 c-11 -4 -23 -6 -27 -4 -10 6 -48 -46 -48 -66 0 -25 31 -60
55 -64 12 -2 21 -12 23 -25 2 -12 8 -19 13 -16 5 4 9 0 9 -8 0 -7 7 -14 15
-14 8 0 15 4 15 9 0 4 6 8 13 8 17 0 15 39 -3 50 -8 5 -10 15 -6 26 18 44 15
61 -12 86 -20 19 -32 24 -47 18z"/>
<path d="M1868 750 c-21 -13 -17 -40 9 -57 17 -11 23 -11 39 4 28 26 25 57 -6
60 -14 2 -32 -2 -42 -7z"/>
<path d="M363 709 c-8 -8 -9 -18 -1 -35 6 -13 14 -24 17 -24 16 1 37 27 36 45
0 23 -34 32 -52 14z"/>
<path d="M1600 657 c0 -4 -4 -6 -8 -3 -5 3 -16 -8 -26 -25 -24 -41 -9 -85 37
-102 9 -3 17 -2 17 4 0 6 8 9 18 7 20 -4 43 17 60 55 10 23 9 29 -3 33 -8 4
-13 10 -10 14 3 4 -3 11 -13 15 -24 11 -72 12 -72 2z"/>
<path d="M373 595 c-8 -8 -10 -22 -5 -32 8 -20 32 -29 32 -12 0 5 5 7 10 4 6
-4 10 7 10 24 0 34 -25 42 -47 16z"/>
<path d="M1468 559 c-6 -4 -15 -6 -18 -4 -4 2 -12 -12 -19 -31 -19 -53 -1 -91
42 -90 50 2 70 18 72 62 4 55 -36 88 -77 63z"/>
<path d="M408 508 c-7 -13 -11 -26 -10 -30 1 -5 -3 -8 -8 -8 -6 0 -6 -6 2 -14
25 -26 68 -5 68 33 0 11 -9 25 -20 31 -16 8 -21 6 -32 -12z"/>
<path d="M1313 474 c4 -4 -1 -13 -12 -20 -30 -22 -15 -98 21 -108 12 -3 29 0
37 7 12 10 13 9 7 -3 -4 -8 4 -2 18 14 14 17 23 33 20 38 -3 4 -1 8 4 8 14 0
3 37 -14 51 -15 13 -93 25 -81 13z"/>
<path d="M474 432 c-15 -9 -21 -43 -11 -59 13 -21 43 -15 54 10 18 39 -11 70
-43 49z"/>
<path d="M1174 394 c-11 -12 -22 -20 -26 -18 -4 3 -5 -5 -3 -16 2 -11 -2 -20
-8 -20 -7 0 -4 -5 6 -11 9 -6 15 -14 12 -20 -4 -5 0 -9 7 -10 7 0 20 -2 29 -4
23 -4 65 36 64 60 -3 48 -6 56 -15 50 -5 -3 -10 -2 -10 4 0 17 -37 8 -56 -15z"/>
<path d="M548 373 c-14 -17 -34 -72 -21 -59 3 3 11 -2 18 -10 14 -20 55 -10
55 12 0 8 5 12 10 9 12 -8 9 32 -3 53 -12 17 -41 15 -59 -5z"/>
<path d="M1021 344 c-19 -22 -26 -74 -9 -74 5 0 6 -5 3 -10 -4 -6 -3 -10 2 -9
4 1 10 0 13 -1 22 -8 40 -6 44 7 3 8 10 12 15 8 9 -5 18 13 26 53 5 25 -24 52
-53 49 -12 -1 -31 -11 -41 -23z"/>
<path d="M680 349 c0 -5 -4 -8 -9 -5 -11 7 -38 -25 -36 -44 2 -28 17 -50 34
-50 51 1 73 71 31 98 -13 8 -20 8 -20 1z"/>
<path d="M784 335 c-4 -8 -10 -12 -15 -9 -5 3 -9 -2 -9 -10 0 -9 -5 -16 -10
-16 -7 0 -7 -7 1 -21 8 -15 8 -19 0 -15 -6 4 -11 4 -11 -1 0 -11 20 -40 20
-30 0 4 8 3 18 -2 40 -21 85 53 57 95 -17 27 -43 31 -51 9z"/>
<path d="M891 317 c-29 -47 -19 -87 22 -87 25 1 60 24 50 33 -3 4 0 13 7 22
10 12 10 19 -3 38 -22 34 -53 31 -76 -6z"/>
</g>
</svg>
